<svg xmlns="http://www.w3.org/2000/svg" xmlns:xlink="http://www.w3.org/1999/xlink" version="1.1" x="0px" y="0px" viewBox="0 0 100 125" style="enable-background:new 0 0 100 100;" xml:space="preserve"><g><path d="M76.863,70.5c12.648-15.823,11.652-39.033-3-53.684C66.244,9.196,56.114,5,45.339,5C34.564,5,24.434,9.196,16.815,16.815   S5,34.564,5,45.34c0,10.774,4.196,20.904,11.815,28.523c7.619,7.619,17.749,11.814,28.524,11.814   c9.259,0,18.038-3.106,25.161-8.813l16.818,16.817C88.197,94.561,89.348,95,90.5,95s2.303-0.439,3.182-1.318   c1.757-1.757,1.757-4.606,0-6.363L76.863,70.5z M23.179,67.5C17.26,61.58,14,53.711,14,45.34s3.26-16.241,9.179-22.161   C29.098,17.26,36.968,14,45.339,14c8.371,0,16.241,3.26,22.16,9.179c12.219,12.219,12.219,32.1,0.002,44.32   c-0.001,0.001-0.002,0.001-0.002,0.002s-0.001,0.001-0.002,0.002c-5.919,5.917-13.788,9.176-22.158,9.176   C36.968,76.678,29.098,73.418,23.179,67.5z"/></g></svg>
